# xmcd CD database file
#
# Track frame offsets:
#	150
#	14999
#	30132
#	44942
#	57284
#	70440
#	84971
#	96992
#	111901
#	125117
#	136955
#	152317
#	165411
#	179938
#	192623
#	206433
#	219663
#	233463
#	245157
#	258364
#	272677
#	285763
#	297919
#	308988
#	323531
#	338191
#
# Disc length: 4688 seconds
#
# Revision: 0
# Processed by: cddbd v1.5.1PL2 Copyright (c) Steve Scherf et al.
# Submitted via: CDex 1.51
#
DISCID=89124e1a
DTITLE=Nat 'King'Cole - The Velvet Voice (HITS)
DYEAR=2005
DGENRE=Jazz
TTITLE0=1. Unforgettable
TTITLE1=2. Mona Lisa
TTITLE2=3. Too Young
TTITLE3=4. Pretend
TTITLE4=5. Smile (though your heart is aching)
TTITLE5=6. Christmas Song (Merry Christmas to You)
TTITLE6=7. Nature Boy
TTITLE7=8. Lush Life
TTITLE8=9. (I Love You)
TTITLE9=10. Orange-Coloured Sky
TTITLE10=11. Embraceable You
TTITLE11=12. Somewhere Along The Way
TTITLE12=13. Because You're Mine
TTITLE13=14. My Baby Just Cares For Me
TTITLE14=15. For All We Know
TTITLE15=16. Sweet Lorraine
TTITLE16=17. (Get Your Kicks On) Route 66
TTITLE17=18. Too Marvellous For Words
TTITLE18=19. It's Only A Paper Moon
TTITLE19=20. Tis Autumn
TTITLE20=21. Dream A Little Dream of Me
TTITLE21=22. Save The Bones for Henry Jones
TTITLE22=23. Straighten Up and Fly Right
TTITLE23=24. Faith Can Move Mountains
TTITLE24=25. Can't I?
TTITLE25=26. Tenderly
EXTD=YEAR: 2005
EXTT0=
EXTT1=
EXTT2=
EXTT3=
EXTT4=
EXTT5=
EXTT6=
EXTT7=
EXTT8=
EXTT9=
EXTT10=
EXTT11=
EXTT12=
EXTT13=
EXTT14=
EXTT15=
EXTT16=
EXTT17=
EXTT18=
EXTT19=
EXTT20=
EXTT21=
EXTT22=
EXTT23=
EXTT24=
EXTT25=
PLAYORDER=
